<svg width="643" height="416" viewBox="0 0 643 416" fill="none" xmlns="http://www.w3.org/2000/svg">
<rect width="643" height="416" fill="#E5E5E5"/>
<rect width="643" height="416" fill="#091D23"/>
<path d="M168.5 53.5C125.4 89.1 97.6 142.5 93.1 198.2C91.4 219.5 92.9 240.9 97 261.9C104.3 299.5 120.9 336.8 150.7 361C164 371.8 179.6 379.7 195.5 386.1C252.4 409.1 316.1 414.6 376.1 401.7C424.2 391.4 471.3 368.1 500.9 328.7C513.6 311.9 522.7 292.6 529.4 272.7C549.6 212.3 546.1 142.7 512.7 88.5C445.1 -21.2 260.7 -22.7 168.5 53.5Z" fill="#BAE2D9"/>
<path d="M119.4 271.7C151.5 246.3 183.7 221.4 213 193.4C181.9 180.2 149.9 170.4 119.5 154.8C116 153 112.4 151.1 109.7 148.2C106.5 144.7 104.9 140.1 103.6 135.6C96.2 109.7 95.9 81.6 104.8 56.2C109.7 42.1 119.7 27.4 134.6 25.9C142 25.2 149.3 27.9 156 31.1C173.6 39.5 185.1 52.2 200 63.8C214.7 75.2 233 83.2 248.5 93.7C280.2 115.2 310 139.8 335.5 168.4C355.8 191.1 349 218.1 329.2 238C302.9 264.5 274.9 289.3 245.4 312.2C230.9 323.4 215.9 333.7 201 344.4C187.4 354.2 175.9 365.9 159 370.3C146 373.6 131.4 372.3 120.2 364.8C109 357.4 102.3 344.9 97.1 332.5C94.1 325.2 91.4 317.6 92 309.7C93.1 293.6 106.8 281.7 119.4 271.7Z" fill="#1B75BC"/>
<path d="M335.6 168.3C310 139.7 280.3 115.1 248.6 93.6C244.4 90.8 240 88.1 235.5 85.5C239.7 89.3 243.9 93.1 248.1 97C275.2 121.6 302.8 147 319.4 179.7C321.8 184.5 324 189.5 324.1 194.8C324.2 199.2 322.8 203.6 320.8 207.6C314.4 220.8 302.5 230.4 291 239.5C266.3 259.1 241.4 278.6 215.5 296.6C191.7 313.1 166.3 325.7 141.6 339.8C135.2 334 129.4 327.3 123.5 321C120.6 318 117.7 314.9 114.5 312.3C108.4 307.2 101.4 303.6 94.3 300C93.1 303.1 92.3 306.3 92 309.7C91.5 317.5 94.1 325.2 97.1 332.5C102.3 344.9 109 357.3 120.2 364.8C131.4 372.2 146 373.6 159 370.3C175.9 366 187.3 354.2 201 344.4C215.9 333.7 230.9 323.4 245.4 312.2C274.9 289.3 303 264.5 329.2 238C349.1 218 355.9 191.1 335.6 168.3Z" fill="#116AA6"/>
<path d="M100.8 307.2C110.4 309.6 118.6 315.1 125.7 321.8C129.3 325.2 132.7 328.9 136 332.6C139.3 336.4 142.6 340.2 145.6 344.3C149 349 152.1 354.5 151.2 360.5C151 361.8 152.9 362.3 153.1 361C154.8 350.2 145.9 341.2 139.5 333.6C132.8 325.7 125.7 318 117 312.3C112.2 309.1 106.9 306.7 101.3 305.3C100.1 305 99.6 306.9 100.8 307.2Z" fill="#065589"/>
<path d="M211.7 196.8C216.8 190.1 224.8 186.5 232.7 184.5C242.4 182 252.7 181.4 262.7 182C264 182.1 264 180.1 262.7 180C254.1 179.5 245.5 180 237.1 181.5C230.5 182.7 223.8 184.7 218.1 188.3C215 190.3 212.2 192.8 210 195.7C209.2 196.8 211 197.8 211.7 196.8Z" fill="#065589"/>
<path d="M211.2 195.2C215.7 180.3 226.3 167.7 240.1 160.5C241.2 159.9 240.2 158.2 239.1 158.8C224.9 166.2 214 179.4 209.3 194.7C208.9 195.9 210.9 196.4 211.2 195.2Z" fill="#065589"/>
<path d="M77.4 406.3C82.4 403.4 87.2 400.3 91.6 397.6C115 383.1 127.5 363.3 145.2 343.5C136.7 332.2 126.6 322.1 115.3 313.7C114.6 313.2 113.8 312.6 113 312.4C111.7 312 110.3 312.4 109 312.7C95.3 316.4 85 322.5 70 323.1C52.8 323.8 34.3 321.9 19.1 331.9C16.8 333.4 14.8 335.7 14.2 338.4C13.7 340.7 14.2 343.2 14.9 345.4C15.2 346.2 15.4 347 15.4 347.8C15 352.9 7.19999 359.2 4.69999 363.5C0.899991 369.9 -1.70001 376.8 2.09999 383.9C3.99999 387.5 6.99999 390.5 9.89999 393.3C19.9 403.2 31.7 412.9 46.1 415.1C56.5 416.7 67.4 412 77.4 406.3Z" fill="#F1B2A9"/>
<path d="M12.2 355.4C13.6 353.9 15 352.4 16.5 350.9C17.7 349.7 19 348.3 20.6 347.7C22.1 347.1 24.3 347.2 25.2 348.7C26 350 25.8 351.8 25.4 353.2C24.6 356.6 23.3 360 22 363.2C21.3 365 20.5 366.7 19.6 368.4C19.2 369.2 18.8 369.9 18.3 370.7C18.1 371.1 17.8 371.4 17.6 371.8C17.4 372.1 16.6 372.8 17.1 373.1C17.3 373.3 17.4 373.5 17.6 373.7C17.6 373.6 17.6 373.6 17.6 373.5C17.4 372.2 15.5 372.8 15.7 374C15.9 375.3 17.5 375.1 18.2 374.4C19.5 373.2 20.4 371.2 21.2 369.7C23 366.3 24.4 362.6 25.7 358.9C26.7 355.9 28.3 352.4 27.6 349.2C26.9 346 23.6 344.6 20.6 345.5C18.7 346 17.2 347.3 15.8 348.6C14.1 350.3 12.5 352.1 10.8 353.8C9.89998 354.9 11.3 356.3 12.2 355.4Z" fill="#C6716B"/>
<path d="M31 382.6C23.1 386.2 14.4 387.9 5.69998 387.5C4.39998 387.4 4.39998 389.4 5.69998 389.5C14.8 389.9 23.8 388.1 32 384.4C33.2 383.8 32.2 382.1 31 382.6Z" fill="#C6716B"/>
<path d="M45 390.9C38.9 398.1 29.9 402.5 20.4 402.8C19.1 402.8 19.1 404.8 20.4 404.8C30.4 404.5 40 399.9 46.4 392.3C47.3 391.3 45.9 389.9 45 390.9Z" fill="#C6716B"/>
<path d="M61.1 401.6C52.8 405.2 45.1 412.7 35.4 411.5C34.1 411.3 34.1 413.3 35.4 413.5C45.5 414.8 53.4 407.1 62.1 403.4C63.2 402.8 62.2 401.1 61.1 401.6Z" fill="#C6716B"/>
<path d="M335.6 168.3C330.7 162.8 325.7 157.5 320.5 152.3C298.6 166.8 276.7 184.9 272.1 210.5C268.1 232.7 278.6 254.5 293.7 271.8C305.9 260.8 317.8 249.5 329.3 237.9C349.1 218 355.9 191.1 335.6 168.3Z" fill="#116AA6"/>
<path d="M115.3 313.6C114.6 313.1 113.8 312.5 113 312.3C112 312 110.9 312.2 109.9 312.4C113.7 318.4 116.2 324.9 115.9 331.9C115.2 346.6 102.3 357.4 90.4 366C70.4 380.6 50.3 395 30 409.3C35 412.1 40.3 414.2 46.1 415.1C56.6 416.7 67.5 412 77.5 406.3C82.5 403.4 87.3 400.3 91.7 397.6C115.1 383.1 127.6 363.3 145.3 343.5C136.7 332.2 126.6 322.1 115.3 313.6Z" fill="#D98C82"/>
<path d="M523.4 271.7C491.3 246.3 459.1 221.4 429.8 193.4C460.9 180.2 492.9 170.4 523.3 154.8C526.8 153 530.4 151.1 533.1 148.2C536.3 144.7 537.9 140.1 539.2 135.6C546.6 109.7 546.9 81.6 538 56.2C533.1 42.1 523.1 27.4 508.2 25.9C500.8 25.2 493.5 27.9 486.8 31.1C469.2 39.5 457.7 52.2 442.8 63.8C428.1 75.2 409.8 83.2 394.3 93.7C362.6 115.2 332.8 139.8 307.3 168.4C287 191.1 293.8 218.1 313.6 238C339.9 264.5 367.9 289.3 397.4 312.2C411.9 323.4 426.9 333.7 441.8 344.4C455.4 354.2 466.9 365.9 483.8 370.3C496.8 373.6 511.4 372.3 522.6 364.8C533.8 357.4 540.5 344.9 545.7 332.5C548.7 325.2 551.4 317.6 550.8 309.7C549.7 293.6 536 281.7 523.4 271.7Z" fill="#F19F1F"/>
<path d="M533 148.3C536.2 144.8 537.8 140.2 539.1 135.7C542.6 123.5 544.5 110.9 544.6 98.2C535.4 104.2 526.5 112.5 516.8 119.1C490.3 137.2 462.2 152.7 434.2 168.3C428.5 171.5 422.7 174.7 416.3 176.1C408.6 177.9 399.5 177.3 393.9 182.9C425.1 210.9 456.2 238.8 487.4 266.8C504.3 282 520.5 294.3 539.8 306.3C515.3 314.1 495.9 336 491.2 361.2C490.6 364.6 490.2 368.1 490.5 371.5C501.7 373 513.4 371 522.8 364.8C534 357.4 540.7 344.9 545.9 332.5C548.9 325.2 551.6 317.6 551 309.7C549.9 293.6 536.2 281.7 523.6 271.8C491.5 246.4 459.3 221.5 430 193.5C461.1 180.3 493.1 170.5 523.5 154.9C526.8 153.1 530.3 151.2 533 148.3Z" fill="#E48B25"/>
<path d="M541.5 305.3C531.5 307.8 522.9 313.6 515.5 320.5C511.6 324.1 508 328.1 504.6 332.1C501.2 336.1 497.7 340 494.7 344.3C491.3 349.2 488.7 354.9 489.7 361C489.9 362.3 491.8 361.7 491.6 360.5C490.8 355.2 493.2 350.2 496.1 345.9C498.9 341.7 502.3 337.8 505.6 334C512 326.5 518.9 319.2 527.1 313.8C531.7 310.8 536.7 308.5 542 307.2C543.2 306.9 542.7 305 541.5 305.3Z" fill="#B46728"/>
<path d="M432.8 195.8C424.1 184.3 408.3 181.2 394.7 180.1C389.8 179.7 384.9 179.7 380 180C378.7 180.1 378.7 182.1 380 182C390 181.4 400.2 182.1 410 184.5C418 186.5 426 190.1 431 196.8C431.8 197.8 433.6 196.8 432.8 195.8Z" fill="#B46728"/>
<path d="M433.5 194.7C428.8 179.4 417.9 166.2 403.7 158.8C402.6 158.2 401.5 159.9 402.7 160.5C416.5 167.7 427 180.4 431.6 195.2C431.9 196.4 433.9 195.9 433.5 194.7Z" fill="#B46728"/>
<path d="M565.4 406.3C560.4 403.4 555.6 400.3 551.2 397.6C527.8 383.1 515.3 363.3 497.6 343.5C506.1 332.2 516.2 322.1 527.5 313.7C528.2 313.2 529 312.6 529.8 312.4C531.1 312 532.5 312.4 533.8 312.7C547.5 316.4 557.8 322.5 572.8 323.1C590 323.8 608.5 321.9 623.7 331.9C626 333.4 628 335.7 628.6 338.4C629.1 340.7 628.6 343.2 627.9 345.4C627.6 346.2 627.4 347 627.4 347.8C627.8 352.9 635.6 359.2 638.1 363.5C641.9 369.9 644.5 376.8 640.7 383.9C638.8 387.5 635.8 390.5 632.9 393.3C622.9 403.2 611.1 412.9 596.7 415.1C586.3 416.7 575.4 412 565.4 406.3Z" fill="#F1B2A9"/>
<path d="M627.4 347.7C627.3 346.9 627.6 346.1 627.9 345.3C628.6 343 629.2 340.6 628.6 338.3C628 335.6 626 333.3 623.7 331.8C608.5 321.8 590 323.7 572.8 323C557.8 322.4 547.4 316.3 533.8 312.6C532.5 312.2 531.1 311.9 529.8 312.3C528.9 312.5 528.2 313.1 527.5 313.6C524.1 316.1 520.9 318.8 517.8 321.6C530.1 331.8 542.7 341.6 556.8 349.1C575.3 358.9 596.6 364.7 617.2 361.3C620.1 372.2 630.8 380.5 642.1 380.9C643.9 374.9 641.6 368.9 638.3 363.4C635.6 359.2 627.8 352.8 627.4 347.7Z" fill="#D98C82"/>
<path d="M632 354C630.5 352.5 629.1 350.9 627.6 349.4C626.3 348.1 625 346.8 623.3 346.1C620.5 344.8 616.9 345.4 615.5 348.4C614.2 351.4 615.6 354.8 616.5 357.7C617.7 361.4 619.1 365.1 620.8 368.6C621.8 370.6 622.8 372.5 624.2 374.2C624.8 375 626.8 375.9 627.1 374.2C627.3 372.9 625.4 372.4 625.2 373.7C625.2 373.8 625.2 373.8 625.2 373.9C625.4 373.7 625.5 373.5 625.7 373.3C626.2 373 625.5 372.5 625.3 372.1C625.1 371.7 624.8 371.4 624.6 371C624.1 370.2 623.6 369.4 623.2 368.5C622.4 366.9 621.6 365.2 620.9 363.5C619.6 360.2 618.2 356.7 617.4 353.3C617.1 351.9 616.8 350.1 617.6 348.8C618.6 347.3 620.5 347.2 622.1 347.7C623.8 348.3 625.1 349.7 626.4 351C627.8 352.5 629.2 354 630.7 355.5C631.5 356.3 632.9 354.9 632 354Z" fill="#C6716B"/>
<path d="M610.8 384.4C619 388.2 628.1 390 637.1 389.5C638.4 389.4 638.4 387.4 637.1 387.5C628.4 387.9 619.7 386.3 611.8 382.6C610.6 382.1 609.6 383.8 610.8 384.4Z" fill="#C6716B"/>
<path d="M596.3 392.3C602.7 399.9 612.3 404.5 622.3 404.8C623.6 404.8 623.6 402.8 622.3 402.8C612.8 402.5 603.8 398.1 597.7 390.9C596.9 389.9 595.5 391.3 596.3 392.3Z" fill="#C6716B"/>
<path d="M580.7 403.3C589.4 407 597.3 414.8 607.4 413.4C608.7 413.2 608.7 411.2 607.4 411.4C597.7 412.7 590 405.1 581.7 401.5C580.6 401.1 579.6 402.8 580.7 403.3Z" fill="#C6716B"/>
<path d="M304.4 104.1C302.1 98.1 299.7 92 297.4 86C297 85 296.1 84.3 294.9 84.6C293.9 84.9 293.1 86 293.5 87.1C295.8 93.1 298.2 99.2 300.5 105.2C300.9 106.2 301.8 106.9 303 106.6C304 106.3 304.8 105.1 304.4 104.1Z" fill="white"/>
<path d="M331.8 107.6C331.8 98.2 331.8 88.8 331.8 79.5C331.8 76.9 327.8 76.9 327.8 79.5C327.8 88.9 327.8 98.3 327.8 107.6C327.8 110.2 331.8 110.2 331.8 107.6Z" fill="white"/>
<path d="M352.1 103.9C356 99.8 358.8 94.7 360.2 89.2C360.5 88.2 359.9 87 358.8 86.7C357.8 86.4 356.6 87 356.3 88.1C355.1 93 352.7 97.4 349.2 101C348.5 101.8 348.4 103.1 349.2 103.8C350 104.6 351.4 104.6 352.1 103.9Z" fill="white"/>
<path d="M294.1 285.6C291.6 291.2 289.1 296.9 286.7 302.5C286.3 303.5 286.4 304.6 287.4 305.2C288.2 305.7 289.7 305.5 290.1 304.5C292.6 298.9 295.1 293.2 297.5 287.6C297.9 286.6 297.8 285.5 296.8 284.9C296 284.3 294.5 284.6 294.1 285.6Z" fill="white"/>
<path d="M315.5 295.5C315.9 302.5 316.3 309.6 316.8 316.6C317 319.2 321 319.2 320.8 316.6C320.4 309.6 320 302.5 319.5 295.5C319.3 293 315.3 293 315.5 295.5Z" fill="white"/>
<path d="M331.3 282.3C334.9 289.4 338.5 296.5 342.1 303.5C343.3 305.8 346.7 303.8 345.6 301.5C342 294.4 338.4 287.3 334.8 280.3C333.6 278 330.2 280 331.3 282.3Z" fill="white"/>
<g opacity="0.5">
<path opacity="0.5" d="M444.8 92.7C448.5 90.3 452.6 85.3 448.6 80.9C441 72.3 388.6 113.5 380.2 119.7C372.9 125.2 365.1 131.7 363.6 140.7C369.1 141.4 374.3 138.2 379 135.2C401 121.1 422.9 106.9 444.8 92.7Z" fill="white"/>
</g>
<path d="M231.8 377.5C231.7 373.1 231.6 369 231.6 365C231.6 361.1 231.8 356 232.3 349.7C237.1 349 241.7 348.6 246.2 348.6V353.7C243.1 353.7 240.1 353.8 237.4 354C237.3 357.1 237.2 359.5 237.2 361.2C239.3 360.9 241.8 360.7 244.7 360.7L245.5 365.3C243.6 365.3 240.8 365.5 237.1 365.9C237.1 369.2 237.1 371.6 237.1 373.1C239.5 372.9 242.4 372.5 245.8 371.8L246.5 376.4C244.1 377.5 241.3 378 238.1 378L231.8 377.5Z" fill="white"/>
<path d="M255.5 347.2C255.1 354.2 254.9 360.6 254.9 366.2C254.9 371.8 255 375.8 255.1 378.1L250.2 377.6C250.1 374.7 250 370.6 250 365.3C250 360 250.2 353.8 250.6 346.8L255.5 347.2Z" fill="white"/>
<path d="M269.9 357.7C271.2 357.7 272.2 358.4 272.9 359.9C273.6 361.4 273.9 363.1 273.9 365.1C273.9 367.1 273.7 369.1 273.3 371.1C272.9 373.1 272.2 374.7 271.3 376.1C270.4 377.5 269.3 378.2 268.1 378.2C266.3 378.2 264.9 377.4 263.8 375.9C263.8 376.3 263.8 376.8 263.9 377.6L260.2 377.2C260 373.9 260 369.4 260 363.8C260 358.2 260.2 352.5 260.5 346.9L265.3 347.3C265 352.8 264.8 357.7 264.8 362.2C266.4 359.1 268.2 357.7 269.9 357.7ZM264.5 369.2V372.5C264.8 373 265.1 373.3 265.4 373.5C265.7 373.7 266 373.8 266.5 373.8C267.2 373.8 267.8 373 268.3 371.5C268.8 370 269.1 368.5 269.1 367.1C269.1 365.7 269 364.7 268.9 364.1C268.7 363.5 268.4 363.2 267.9 363.2C266.9 363.1 265.8 365.1 264.5 369.2Z" fill="white"/>
<path d="M276.1 369.4C276.1 366.8 276.6 364.3 277.7 361.8C278.3 360.5 279 359.5 280.1 358.7C281.1 357.9 282.2 357.5 283.5 357.5C284.8 357.5 285.8 357.8 286.7 358.4C287.6 359 288.3 359.7 288.8 360.7C289.7 362.6 290.2 364.6 290.2 366.8C290.2 369.8 289.6 372.5 288.3 374.9C287.1 377.2 285.3 378.4 283.1 378.4C278.5 378.4 276.1 375.4 276.1 369.4ZM281 369.8C281 372.9 281.7 374.5 283.1 374.5C283.7 374.5 284.2 373.6 284.6 371.9C285 370.1 285.2 368.4 285.2 366.8C285.2 363.2 284.6 361.5 283.4 361.5C282.6 361.5 282 362.5 281.6 364.4C281.2 366.2 281 368 281 369.8Z" fill="white"/>
<path d="M307.1 377.8L303.2 377.5C302.5 374.4 301.9 371.6 301.3 369C300.6 371.5 299.7 374.5 298.5 378L294.2 377.5C292.5 369.2 291.5 362.7 291.1 358L295.9 358.5C296.3 364.6 296.8 369.2 297.2 372.4C298.2 368.5 299.2 363.9 300.2 358.8L303.4 359.1C303.7 363.6 304.2 367.7 304.9 371.4C305.9 367.6 306.9 362.6 308.1 356.6L312.6 357C311.4 362.8 309.6 369.7 307.1 377.8Z" fill="white"/>
<path d="M325.1 349.6C328.4 348.6 331.3 348.1 333.9 348.1C336.5 348.1 338.8 348.8 340.6 350.2C342.4 351.6 343.4 353.3 343.4 355.4C343.4 358.5 341.7 360.9 338.2 362.7C341.4 364 343 366.2 343 369.2C343 371.5 341.8 373.5 339.5 375.2C337.1 377 334.7 377.8 332.1 377.8C331.8 377.8 329.4 377.6 325 377.2C325.4 371.2 325.6 366.2 325.6 362.1C325.5 358.2 325.4 353.9 325.1 349.6ZM333 372.8C333.9 372.8 334.9 372.4 335.9 371.7C336.9 371 337.4 370.1 337.4 369.2C337.4 368.2 336.8 367.4 335.6 366.7C334.4 366 332.9 365.5 331 365.4C330.9 368.7 330.9 371.1 330.8 372.8C331.4 372.8 332.1 372.8 333 372.8ZM336.5 353.8C335.7 353.2 334.8 352.9 333.9 352.9C333 352.9 332 353.1 330.9 353.4C331 356.7 331.1 359.2 331.1 360.9C332.4 360.8 333.8 360.2 335.4 359.2C337 358.2 337.8 357 337.8 355.8C337.7 355.1 337.3 354.4 336.5 353.8Z" fill="white"/>
<path d="M359.6 357.7L359.5 364.3C359.5 370.5 359.6 375.1 359.8 378L355.7 377.6C355.6 376.4 355.4 375.3 355.2 374.1C353.7 376.4 352.1 377.5 350.6 377.5C349.1 377.5 347.8 377 346.9 375.9C346 374.8 345.5 373.4 345.5 371.5C345.5 367.9 345.8 363.6 346.3 358.6L351.1 359.1C350.6 363.9 350.3 367.8 350.3 370.9C350.3 372.3 350.7 373 351.6 373C352 373 352.5 372.4 353.1 371.3C353.7 370.2 354.2 368.8 354.5 367.2C354.5 366.6 354.5 365.9 354.5 365C354.5 364.2 354.5 361.6 354.6 357.4L359.6 357.7Z" fill="white"/>
<path d="M372.7 358.7C374.4 358.7 375.7 359.3 376.6 360.5C378 358.4 379.5 357.3 380.9 357.3C384.8 357.3 386.7 360.2 386.7 366C386.7 369.3 386.4 373.3 385.9 377.9L381.1 377.5C381.6 372.3 381.9 368.3 381.9 365.6C381.9 362.9 381.5 361.5 380.6 361.5C380.2 361.5 379.8 362.1 379.2 363.4C378.7 364.7 378.3 366 378.2 367.6C378.1 371.1 378 374.2 377.9 376.9L373 376.4C373.2 372.5 373.3 369.3 373.3 366.7C373.3 364.2 373 362.9 372.3 362.9C371.9 362.9 371.3 363.7 370.6 365.2C369.9 366.7 369.4 368.4 369.1 370.1C369.1 372.7 369.3 375.3 369.5 378L364.6 377.5C364.3 373.6 364.1 370 364.1 366.8C364.1 363.6 364.2 360.6 364.4 357.8L367.9 358.1C368.1 358.8 368.3 360.2 368.6 362.2C369.8 359.8 371.2 358.7 372.7 358.7Z" fill="white"/>
<path d="M395.5 360.4C396.6 358.7 398 357.9 399.6 357.9C401.2 357.9 402.5 358.6 403.4 359.9C404.3 361.2 404.8 363 404.8 365.2C404.8 368.4 404.1 371.4 402.7 374C401.3 376.6 399.9 378 398.3 378C397.2 378 396.2 377.9 395.4 377.6C395.5 381.4 395.6 384.8 395.7 387.6L390.8 387.1C390.7 382.1 390.6 376.8 390.6 371.2C390.6 365.6 390.8 360.7 391.2 356.6L395.5 357.1V360.4ZM396.8 373.7C397.6 373.7 398.3 372.9 399 371.4C399.7 369.9 400 368.3 400 366.8C400 365.3 399.9 364.1 399.6 363.2C399.3 362.4 399 361.9 398.6 361.9C398 361.9 397.5 362.3 397 363C396.5 363.7 396.1 364.8 395.6 366.1C395.6 367.5 395.6 369.8 395.6 372.8C395.9 373.4 396.3 373.7 396.8 373.7Z" fill="white"/>
</svg>
